<svg width="140" height="135" version="1.1" xmlns="http://www.w3.org/2000/svg" desc="Created with imagetracer.js version 1.2.6" ><path fill="rgb(244,246,246)" stroke="rgb(244,246,246)" stroke-width="1" opacity="1" d="M 53.5 0 L 59 2.5 L 57.5 2 L 53.5 1 L 53.5 0 Z " /><path fill="rgb(244,246,246)" stroke="rgb(244,246,246)" stroke-width="1" opacity="1" d="M 82.5 1 L 81.5 3 L 69.5 13 L 60.5 3 L 70.5 12 L 82.5 1 Z " /><path fill="rgb(244,246,246)" stroke="rgb(244,246,246)" stroke-width="1" opacity="1" d="M 40.5 2 L 36.5 7 L 40.5 2 Z " /><path fill="rgb(244,246,246)" stroke="rgb(244,246,246)" stroke-width="1" opacity="1" d="M 99.5 2 L 105 8.5 L 103 7.5 L 99.5 2 Z " /><path fill="rgb(244,246,246)" stroke="rgb(244,246,246)" stroke-width="1" opacity="1" d="M 105.5 10 L 106 12.5 L 105 12.5 L 105.5 10 Z " /><path fill="rgb(244,246,246)" stroke="rgb(244,246,246)" stroke-width="1" opacity="1" d="M 33.5 13 L 34 17.5 L 33 17.5 L 33.5 13 Z " /><path fill="rgb(244,246,246)" stroke="rgb(244,246,246)" stroke-width="1" opacity="1" d="M 106.5 14 L 107 17.5 L 106 17.5 L 106.5 14 Z " /><path fill="rgb(244,246,246)" stroke="rgb(244,246,246)" stroke-width="1" opacity="1" d="M 105.5 19 L 106 21.5 L 103.5 25 L 104 23.5 L 105.5 19 Z " /><path fill="rgb(244,246,246)" stroke="rgb(244,246,246)" stroke-width="1" opacity="1" d="M 34.5 20 L 37 24.5 L 35 23.5 L 34.5 20 Z " /><path fill="rgb(244,246,246)" stroke="rgb(244,246,246)" stroke-width="1" opacity="1" d="M 37.5 26 L 59.5 49 L 37.5 26 Z " /><path fill="rgb(244,246,246)" stroke="rgb(244,246,246)" stroke-width="1" opacity="1" d="M 102.5 26 L 80.5 49 L 102.5 26 Z " /><path fill="rgb(244,246,246)" stroke="rgb(244,246,246)" stroke-width="1" opacity="1" d="M 9.5 33 L 5.5 38 L 9.5 33 Z " /><path fill="rgb(244,246,246)" stroke="rgb(244,246,246)" stroke-width="1" opacity="1" d="M 27.5 33 L 28.5 35 L 27.5 33 Z " /><path fill="rgb(244,246,246)" stroke="rgb(244,246,246)" stroke-width="1" opacity="1" d="M 131.5 34 L 134.5 38 L 131.5 34 Z " /><path fill="rgb(244,246,246)" stroke="rgb(244,246,246)" stroke-width="1" opacity="1" d="M 2.5 44 L 3 50.5 L 2 50.5 L 2.5 44 Z " /><path fill="rgb(244,246,246)" stroke="rgb(244,246,246)" stroke-width="1" opacity="1" d="M 137.5 44 L 138 49.5 L 137 49.5 L 137.5 44 Z " /><path fill="rgb(244,246,246)" stroke="rgb(244,246,246)" stroke-width="1" opacity="1" d="M 61.5 49 L 67 51.5 L 64.5 52 L 61.5 49 Z " /><path fill="rgb(244,246,246)" stroke="rgb(244,246,246)" stroke-width="1" opacity="1" d="M 78.5 49 L 77.5 51 L 76 50.5 L 78.5 49 Z " /><path fill="rgb(244,246,246)" stroke="rgb(244,246,246)" stroke-width="1" opacity="1" d="M 4.5 55 L 5.5 57 L 4.5 55 Z " /><path fill="rgb(244,246,246)" stroke="rgb(244,246,246)" stroke-width="1" opacity="1" d="M 134.5 56 L 133.5 58 L 134.5 56 Z " /><path fill="rgb(244,246,246)" stroke="rgb(244,246,246)" stroke-width="1" opacity="1" d="M 51.5 57 L 52.5 59 L 51.5 57 Z " /><path fill="rgb(244,246,246)" stroke="rgb(244,246,246)" stroke-width="1" opacity="1" d="M 15.5 67 L 5.5 78 L 15.5 67 Z " /><path fill="rgb(244,246,246)" stroke="rgb(244,246,246)" stroke-width="1" opacity="1" d="M 124.5 67 L 133.5 77 L 124.5 67 Z " /><path fill="rgb(244,246,246)" stroke="rgb(244,246,246)" stroke-width="1" opacity="1" d="M 88.5 77 L 110.5 100 L 88.5 77 Z " /><path fill="rgb(244,246,246)" stroke="rgb(244,246,246)" stroke-width="1" opacity="1" d="M 50.5 78 L 48.5 81 L 50.5 78 Z " /><path fill="rgb(244,246,246)" stroke="rgb(244,246,246)" stroke-width="1" opacity="1" d="M 46.5 82 L 29.5 100 L 46.5 82 Z " /><path fill="rgb(244,246,246)" stroke="rgb(244,246,246)" stroke-width="1" opacity="1" d="M 2.5 84 L 3 90.5 L 2 90.5 L 2.5 84 Z " /><path fill="rgb(244,246,246)" stroke="rgb(244,246,246)" stroke-width="1" opacity="1" d="M 78.5 84 L 79.5 86 L 78.5 84 Z " /><path fill="rgb(244,246,246)" stroke="rgb(244,246,246)" stroke-width="1" opacity="1" d="M 137.5 84 L 138 89.5 L 137 89.5 L 137.5 84 Z " /><path fill="rgb(244,246,246)" stroke="rgb(244,246,246)" stroke-width="1" opacity="1" d="M 135.5 95 L 134.5 97 L 135.5 95 Z " /><path fill="rgb(244,246,246)" stroke="rgb(244,246,246)" stroke-width="1" opacity="1" d="M 9.5 100 L 10.5 102 L 9.5 100 Z " /><path fill="rgb(244,246,246)" stroke="rgb(244,246,246)" stroke-width="1" opacity="1" d="M 130.5 100 L 129.5 102 L 130.5 100 Z " /><path fill="rgb(244,246,246)" stroke="rgb(244,246,246)" stroke-width="1" opacity="1" d="M 15.5 103 L 22 103.5 L 15.5 104 L 15.5 103 Z " /><path fill="rgb(244,246,246)" stroke="rgb(244,246,246)" stroke-width="1" opacity="1" d="M 118.5 103 L 124 103.5 L 118.5 104 L 118.5 103 Z " /><path fill="rgb(244,246,246)" stroke="rgb(244,246,246)" stroke-width="1" opacity="1" d="M 102.5 108 L 103.5 110 L 102.5 108 Z " /><path fill="rgb(244,246,246)" stroke="rgb(244,246,246)" stroke-width="1" opacity="1" d="M 33.5 117 L 34 119.5 L 33 119.5 L 33.5 117 Z " /><path fill="rgb(244,246,246)" stroke="rgb(244,246,246)" stroke-width="1" opacity="1" d="M 35.5 126 L 36.5 128 L 35.5 126 Z " /><path fill="rgb(244,246,246)" stroke="rgb(244,246,246)" stroke-width="1" opacity="1" d="M 59.5 131 L 58.5 133 L 59.5 131 Z " /><path fill="rgb(244,246,246)" stroke="rgb(244,246,246)" stroke-width="1" opacity="1" d="M 80.5 131 L 81.5 133 L 80.5 131 Z " /><path fill="rgb(252,23,23)" stroke="rgb(252,23,23)" stroke-width="1" opacity="1" d="M 69.5 14 L 83 26.5 L 86 33.5 L 86 38.5 Q 84.9 46.4 78.5 49 Q 74.5 52.5 65.5 51 L 55 42.5 L 54 32.5 L 57 26.5 L 69.5 14 Z " /><path fill="rgb(251,79,79)" stroke="rgb(251,79,79)" stroke-width="1" opacity="1" d="M 46.5 0 Q 55.4 -0.9 59.5 3 L 70.5 13 L 83.5 1 L 93.5 0 Q 100 1.5 103 6.5 L 105 9.5 L 106 18.5 L 103 25.5 L 79.5 49 L 85 42.5 L 86 33.5 L 83 26.5 L 70.5 14 L 57 26.5 Q 53 30 54 38.5 Q 55 46.1 61 48.5 L 37 25.5 L 34 19.5 L 34 12.5 Q 35.8 5.3 41.5 2 L 46.5 0 Z " /><path fill="rgb(251,79,79)" stroke="rgb(251,79,79)" stroke-width="1" opacity="1" d="M 67.5 51 L 73 51.5 L 67.5 52 L 67.5 51 Z " /><path fill="rgb(254,254,254)" stroke="rgb(254,254,254)" stroke-width="1" opacity="1" d="M 59.5 0 Q 61.8 -0.8 61 1.5 L 59 2.5 L 59.5 0 Z " /><path fill="rgb(254,254,254)" stroke="rgb(254,254,254)" stroke-width="1" opacity="1" d="M 78.5 0 L 82 0.5 L 79.5 2 L 78.5 0 Z " /><path fill="rgb(254,254,254)" stroke="rgb(254,254,254)" stroke-width="1" opacity="1" d="M 37.5 2 L 38 3.5 Q 36 8 34 4.5 L 37.5 2 Z " /><path fill="rgb(254,254,254)" stroke="rgb(254,254,254)" stroke-width="1" opacity="1" d="M 104.5 2 L 105 3.5 L 103 4.5 L 104.5 2 Z " /><path fill="rgb(254,254,254)" stroke="rgb(254,254,254)" stroke-width="1" opacity="1" d="M 62.5 3 Q 65.1 2.3 64 5 L 67 5 L 67 8 L 72 8 L 72 9.5 L 69.5 11 L 62.5 3 Z " /><path fill="rgb(254,254,254)" stroke="rgb(254,254,254)" stroke-width="1" opacity="1" d="M 76 3 L 78 3.5 L 73.5 8 L 72 6.5 L 76 4.5 L 76 3 Z " /><path fill="rgb(254,254,254)" stroke="rgb(254,254,254)" stroke-width="1" opacity="1" d="M 33.5 8 L 34.5 10 L 32.5 11 L 32 9.5 L 33.5 8 Z " /><path fill="rgb(254,254,254)" stroke="rgb(254,254,254)" stroke-width="1" opacity="1" d="M 106.5 8 Q 108.8 8.8 108 12.5 L 106 13.5 L 107 10.5 L 106.5 8 Z " /><path fill="rgb(254,254,254)" stroke="rgb(254,254,254)" stroke-width="1" opacity="1" d="M 33.5 18 L 33 19.5 L 34 23.5 L 33 23.5 L 32 19.5 L 33.5 18 Z " /><path fill="rgb(254,254,254)" stroke="rgb(254,254,254)" stroke-width="1" opacity="1" d="M 107.5 19 L 108 23 L 106 22.5 L 107.5 19 Z " /><path fill="rgb(254,254,254)" stroke="rgb(254,254,254)" stroke-width="1" opacity="1" d="M 34.5 25 L 37 25.5 L 36 26.5 L 58.5 50 L 56 49 L 54.5 46 L 52 47 L 52 43 Q 49 44 50 41 L 47 41 L 47 38 L 43.5 38 L 44 36.5 Q 44.7 33.5 41 35 L 41 32 L 38 32 L 38 29 L 35 29 L 35 26.5 L 34.5 25 Z " /><path fill="rgb(254,254,254)" stroke="rgb(254,254,254)" stroke-width="1" opacity="1" d="M 15.5 28 L 18 28.5 Q 17 31 12.5 30 L 12.5 29 L 15.5 28 Z " /><path fill="rgb(254,254,254)" stroke="rgb(254,254,254)" stroke-width="1" opacity="1" d="M 102.5 28 L 102 29.5 Q 102.8 31.8 100.5 31 L 98 35 L 92 39.5 Q 92.8 41.8 90.5 41 L 88 45 L 86 45 L 86 47 L 84 47 Q 85.1 49.7 82.5 49 L 81 49.5 L 102.5 28 Z " /><path fill="rgb(254,254,254)" stroke="rgb(254,254,254)" stroke-width="1" opacity="1" d="M 124.5 28 L 127 29.5 L 121.5 31 L 122.5 29 L 124.5 28 Z " /><path fill="rgb(254,254,254)" stroke="rgb(254,254,254)" stroke-width="1" opacity="1" d="M 20.5 29 L 23 29.5 L 20.5 30 L 20.5 29 Z " /><path fill="rgb(254,254,254)" stroke="rgb(254,254,254)" stroke-width="1" opacity="1" d="M 116.5 29 L 119 29.5 L 116.5 30 L 116.5 29 Z " /><path fill="rgb(254,254,254)" stroke="rgb(254,254,254)" stroke-width="1" opacity="1" d="M 6.5 32 L 9 32.5 L 4 37.5 L 4.5 39 L 3 35.5 L 7 33.5 L 6.5 32 Z " /><path fill="rgb(254,254,254)" stroke="rgb(254,254,254)" stroke-width="1" opacity="1" d="M 28.5 32 Q 30.8 31.3 30 33.5 L 28.5 32 Z " /><path fill="rgb(254,254,254)" stroke="rgb(254,254,254)" stroke-width="1" opacity="1" d="M 131.5 32 L 130.5 34 L 131.5 32 Z " /><path fill="rgb(254,254,254)" stroke="rgb(254,254,254)" stroke-width="1" opacity="1" d="M 133.5 34 L 136.5 38 L 133.5 34 Z " /><path fill="rgb(254,254,254)" stroke="rgb(254,254,254)" stroke-width="1" opacity="1" d="M 101.5 41 L 104 41.5 Q 101.9 44.8 101.5 41 Z " /><path fill="rgb(254,254,254)" stroke="rgb(254,254,254)" stroke-width="1" opacity="1" d="M 0.5 43 L 1 46.5 L 0 46.5 L 0.5 43 Z " /><path fill="rgb(254,254,254)" stroke="rgb(254,254,254)" stroke-width="1" opacity="1" d="M 139.5 44 L 140 52 L 137 50.5 L 139 50 L 139.5 44 Z " /><path fill="rgb(254,254,254)" stroke="rgb(254,254,254)" stroke-width="1" opacity="1" d="M 45.5 49 Q 47.8 48.3 47 50.5 L 45.5 49 Z " /><path fill="rgb(254,254,254)" stroke="rgb(254,254,254)" stroke-width="1" opacity="1" d="M 78.5 51 L 77.5 53 L 78.5 51 Z " /><path fill="rgb(254,254,254)" stroke="rgb(254,254,254)" stroke-width="1" opacity="1" d="M 48.5 52 Q 50.8 51.3 50 53.5 L 48.5 52 Z " /><path fill="rgb(254,254,254)" stroke="rgb(254,254,254)" stroke-width="1" opacity="1" d="M 51.5 55 Q 53.8 54.3 53 56.5 L 51.5 55 Z " /><path fill="rgb(254,254,254)" stroke="rgb(254,254,254)" stroke-width="1" opacity="1" d="M 3.5 56 L 4.5 58 Q 1.7 58.7 3.5 56 Z " /><path fill="rgb(254,254,254)" stroke="rgb(254,254,254)" stroke-width="1" opacity="1" d="M 54.5 58 L 56 61.5 L 54 62.5 L 55 60.5 L 54.5 58 Z " /><path fill="rgb(254,254,254)" stroke="rgb(254,254,254)" stroke-width="1" opacity="1" d="M 84 58 L 86 58.5 L 84.5 61 L 84 58 Z " /><path fill="rgb(254,254,254)" stroke="rgb(254,254,254)" stroke-width="1" opacity="1" d="M 127.5 65 L 129.5 70 L 131 69.5 L 131 72 Q 135.1 70.3 134 74.5 L 126 67.5 L 127.5 65 Z " /><path fill="rgb(254,254,254)" stroke="rgb(254,254,254)" stroke-width="1" opacity="1" d="M 11 66 L 14 67.5 L 9 71.5 Q 7.8 67.8 11.5 69 L 11 67.5 L 11 66 Z " /><path fill="rgb(254,254,254)" stroke="rgb(254,254,254)" stroke-width="1" opacity="1" d="M 6.5 72 L 8 73.5 Q 2.6 76.3 4.5 79 L 3 75.5 L 6 74.5 L 6.5 72 Z " /><path fill="rgb(254,254,254)" stroke="rgb(254,254,254)" stroke-width="1" opacity="1" d="M 85.5 72 L 85 73.5 L 86 75.5 L 84 76 L 85.5 72 Z " /><path fill="rgb(254,254,254)" stroke="rgb(254,254,254)" stroke-width="1" opacity="1" d="M 55.5 73 L 56 74.5 Q 54.5 77.5 53 74.5 L 55.5 73 Z " /><path fill="rgb(254,254,254)" stroke="rgb(254,254,254)" stroke-width="1" opacity="1" d="M 136.5 75 L 137 78.5 L 136 78.5 L 135.5 77 L 134 77.5 L 136.5 75 Z " /><path fill="rgb(254,254,254)" stroke="rgb(254,254,254)" stroke-width="1" opacity="1" d="M 87.5 78 L 90.5 82 L 87 79.5 L 87.5 78 Z " /><path fill="rgb(254,254,254)" stroke="rgb(254,254,254)" stroke-width="1" opacity="1" d="M 0 81 Q 2.7 79.9 2 82.5 L 2.5 84 L 1 83.5 L 0.5 87 L 0 81 Z " /><path fill="rgb(254,254,254)" stroke="rgb(254,254,254)" stroke-width="1" opacity="1" d="M 47.5 81 L 50 81.5 Q 50.8 83.8 48.5 83 L 46 84.5 Q 49.1 82.8 47.5 81 Z " /><path fill="rgb(254,254,254)" stroke="rgb(254,254,254)" stroke-width="1" opacity="1" d="M 61 81 Q 64.8 80 66 82.5 L 64.5 82 L 61 83 L 61 81 Z " /><path fill="rgb(254,254,254)" stroke="rgb(254,254,254)" stroke-width="1" opacity="1" d="M 75.5 81 Q 80.3 79.7 79 83 Q 74.8 83 75.5 81 Z " /><path fill="rgb(254,254,254)" stroke="rgb(254,254,254)" stroke-width="1" opacity="1" d="M 58 84 L 60 84.5 L 58.5 87 L 58 84 Z " /><path fill="rgb(254,254,254)" stroke="rgb(254,254,254)" stroke-width="1" opacity="1" d="M 139.5 84 L 140 91.5 L 138 92.5 L 137 90.5 L 139 90.5 L 139.5 84 Z " /><path fill="rgb(254,254,254)" stroke="rgb(254,254,254)" stroke-width="1" opacity="1" d="M 55 87 L 57 87.5 L 55 88.5 L 55 87 Z " /><path fill="rgb(254,254,254)" stroke="rgb(254,254,254)" stroke-width="1" opacity="1" d="M 0 90 L 3 91.5 Q 1.5 94.5 0 91.5 L 0 90 Z " /><path fill="rgb(254,254,254)" stroke="rgb(254,254,254)" stroke-width="1" opacity="1" d="M 52.5 90 L 53.5 92 L 52.5 90 Z " /><path fill="rgb(254,254,254)" stroke="rgb(254,254,254)" stroke-width="1" opacity="1" d="M 39.5 91 L 38.5 93 L 39.5 91 Z " /><path fill="rgb(254,254,254)" stroke="rgb(254,254,254)" stroke-width="1" opacity="1" d="M 50.5 92 L 51.5 94 L 50.5 92 Z " /><path fill="rgb(254,254,254)" stroke="rgb(254,254,254)" stroke-width="1" opacity="1" d="M 136.5 96 L 137 97.5 L 134.5 99 L 136.5 96 Z " /><path fill="rgb(254,254,254)" stroke="rgb(254,254,254)" stroke-width="1" opacity="1" d="M 3 97 Q 6 96 5 99 Q 2 100 3 97 Z " /><path fill="rgb(254,254,254)" stroke="rgb(254,254,254)" stroke-width="1" opacity="1" d="M 33.5 97 L 34 99 L 32 98.5 L 33.5 97 Z " /><path fill="rgb(254,254,254)" stroke="rgb(254,254,254)" stroke-width="1" opacity="1" d="M 6.5 98 L 8 99.5 L 7.5 102 L 6 100.5 L 6.5 98 Z " /><path fill="rgb(254,254,254)" stroke="rgb(254,254,254)" stroke-width="1" opacity="1" d="M 43.5 99 L 44.5 101 L 43.5 99 Z " /><path fill="rgb(254,254,254)" stroke="rgb(254,254,254)" stroke-width="1" opacity="1" d="M 132.5 100 Q 134.8 99.3 134 101.5 L 132.5 100 Z " /><path fill="rgb(254,254,254)" stroke="rgb(254,254,254)" stroke-width="1" opacity="1" d="M 10 103 L 14 104.5 L 10 105 L 10 103 Z " /><path fill="rgb(254,254,254)" stroke="rgb(254,254,254)" stroke-width="1" opacity="1" d="M 25.5 103 L 27 103.5 L 23.5 105 L 23.5 104 L 25.5 103 Z " /><path fill="rgb(254,254,254)" stroke="rgb(254,254,254)" stroke-width="1" opacity="1" d="M 113.5 103 L 117 104.5 L 114.5 105 L 113.5 103 Z " /><path fill="rgb(254,254,254)" stroke="rgb(254,254,254)" stroke-width="1" opacity="1" d="M 124.5 103 L 128 104.5 L 125.5 105 L 124.5 103 Z " /><path fill="rgb(254,254,254)" stroke="rgb(254,254,254)" stroke-width="1" opacity="1" d="M 100.5 104 L 101.5 106 L 100.5 104 Z " /><path fill="rgb(254,254,254)" stroke="rgb(254,254,254)" stroke-width="1" opacity="1" d="M 103.5 107 Q 105.8 106.3 105 108.5 L 103.5 107 Z " /><path fill="rgb(254,254,254)" stroke="rgb(254,254,254)" stroke-width="1" opacity="1" d="M 32 112 L 35 112.5 L 33 113 L 34 116.5 L 33 116.5 L 32 112 Z " /><path fill="rgb(254,254,254)" stroke="rgb(254,254,254)" stroke-width="1" opacity="1" d="M 107.5 113 L 108 115.5 L 106.5 118 L 106 116.5 L 107.5 113 Z " /><path fill="rgb(254,254,254)" stroke="rgb(254,254,254)" stroke-width="1" opacity="1" d="M 33.5 120 L 34 121.5 L 32.5 124 L 32 122.5 L 33.5 120 Z " /><path fill="rgb(254,254,254)" stroke="rgb(254,254,254)" stroke-width="1" opacity="1" d="M 106.5 120 L 107.5 122 L 106.5 120 Z " /><path fill="rgb(254,254,254)" stroke="rgb(254,254,254)" stroke-width="1" opacity="1" d="M 69.5 123 L 70.5 125 Q 67.7 125.7 69.5 123 Z " /><path fill="rgb(254,254,254)" stroke="rgb(254,254,254)" stroke-width="1" opacity="1" d="M 104.5 128 L 105 131 L 103 130.5 L 104.5 128 Z " /><path fill="rgb(254,254,254)" stroke="rgb(254,254,254)" stroke-width="1" opacity="1" d="M 37.5 129 L 38.5 131 L 37.5 129 Z " /><path fill="rgb(254,254,254)" stroke="rgb(254,254,254)" stroke-width="1" opacity="1" d="M 75.5 129 L 76.5 131 L 75.5 129 Z " /><path fill="rgb(254,254,254)" stroke="rgb(254,254,254)" stroke-width="1" opacity="1" d="M 78.5 131 L 80.5 134 Q 78.3 134.8 79 132.5 L 78.5 131 Z " /><path fill="rgb(254,254,254)" stroke="rgb(254,254,254)" stroke-width="1" opacity="1" d="M 38 132 L 40 132.5 L 38 133.5 L 38 132 Z " /><path fill="rgb(254,254,254)" stroke="rgb(254,254,254)" stroke-width="1" opacity="1" d="M 100.5 132 Q 102.8 131.3 102 133.5 L 99 133.5 L 100.5 132 Z " /><path fill="rgb(59,177,224)" stroke="rgb(59,177,224)" stroke-width="1" opacity="1" d="M 33.5 52 L 44.5 52 L 51 57.5 Q 55.2 61.3 54 70.5 Q 51.9 78.4 45.5 82 L 35.5 83 L 30.5 81 L 17 67.5 L 28.5 55 L 33.5 52 Z " /><path fill="rgb(59,177,224)" stroke="rgb(59,177,224)" stroke-width="1" opacity="1" d="M 95.5 52 L 106.5 52 L 108.5 53 L 123 66.5 L 109.5 81 Q 105.9 83.9 98.5 83 Q 90.5 81.9 88 75.5 Q 84.7 71.8 86 63.5 Q 88.3 56.8 93.5 53 L 95.5 52 Z " /><path fill="rgb(59,177,224)" stroke="rgb(59,177,224)" stroke-width="1" opacity="1" d="M 67.5 83 Q 79.6 82.9 84 90.5 L 86 99.5 L 84 106.5 L 70.5 120 L 56 106.5 L 54 96.5 Q 55.1 89.1 60.5 86 L 67.5 83 Z " /><path fill="rgb(255,255,255)" stroke="rgb(255,255,255)" stroke-width="1" opacity="1" d="M 0 0 L 38.5 0 L 40.5 1 L 43.5 0 L 43.5 1 Q 37.4 2.4 35 7.5 L 34.5 9 Q 33.3 6.8 32 9.5 L 32.5 11 L 34 10.5 L 33 18.5 L 36 24.5 L 34 25.5 L 35 29 L 38 28.5 L 36.5 26 L 59.5 49 L 64.5 52 L 70.5 53 L 75.5 52 L 80.5 49 L 103 26.5 Q 107.2 22.2 107 13.5 Q 105.2 5.8 99.5 2 L 96 0.5 L 140 0 L 140 43.5 L 138.5 50 Q 138.6 37.4 130.5 33 L 121.5 30 L 116.5 31 L 109 35 L 106.5 39 L 103.5 41 L 90.5 55 Q 88.3 54.3 89 56.5 Q 83 60.5 85 72.5 L 87 76.5 L 111.5 101 Q 115.6 104.9 124.5 104 Q 132.4 101.9 136 95.5 Q 138.9 91.9 138 84.5 L 135 77.5 L 125 66.5 L 137 55.5 L 137 53.5 L 137.5 51 L 140 52 L 140 83.5 L 138 92.5 L 140 92.5 L 140 135 L 95.5 135 L 95.5 134 Q 102.4 132.4 105 126.5 L 107 116.5 L 104 109.5 L 78.5 84 Q 74.1 80.9 65.5 82 L 59.5 86 L 59.5 84 Q 56.5 83.1 58 87.5 L 53 91 L 53 93 Q 50.3 91.9 51 94.5 L 47 97 L 45.5 100 Q 43.3 99.3 44 101.5 L 40 104 L 35 112 Q 30.9 110.3 32 114.5 L 33 114.5 L 33.5 113 L 34 114.5 Q 31.5 116 33 121.5 L 38.5 131 L 45 134.5 L 0 135 L 0.5 92 L 3 92.5 L 7.5 100 Q 11.5 105 21.5 104 L 29.5 100 L 52 77.5 L 53.5 75 Q 54.8 77.3 56 74.5 L 55.5 73 L 54 73.5 Q 56.5 70 55 62.5 L 53 58.5 L 27.5 33 L 18.5 30 L 9.5 33 L 4 38.5 Q 1 42.5 2 50.5 L 4 55.5 L 15 67.5 L 4 78.5 Q 1 82.8 2 90 Q -1 91.3 0 87.5 L 2 81 L 0 80.5 L 0 51.5 L 1 49.5 L 0 47.5 L 1 43.5 L 0 42.5 L 0 0 Z M 38 2 L 34 5 Q 36 8 38 4 L 38 2 Z M 105 2 L 103 5 L 105 4 L 105 2 Z M 107 8 L 107 13 L 108 13 Q 109 9 107 8 Z M 33 19 L 32 22 L 33 22 L 33 19 Z M 108 19 L 106 23 L 108 23 L 108 19 Z M 16 28 L 13 29 L 13 30 Q 17 31 18 29 L 16 28 Z M 125 28 L 123 29 L 123 30 L 127 30 L 125 28 Z M 21 29 L 21 30 L 23 30 L 21 29 Z M 39 29 Q 36 33 41 32 L 39 29 Z M 102 29 L 100 31 L 102 31 L 102 29 Z M 117 29 L 117 30 L 119 30 L 117 29 Z M 7 32 Q 7 36 9 33 L 7 32 Z M 29 32 L 30 34 Q 31 31 29 32 Z M 42 32 Q 39 36 44 35 L 42 32 Z M 98 33 L 96 35 L 98 35 L 98 33 Z M 5 34 L 3 36 L 4 38 Q 8 36 5 34 Z M 45 35 L 43 38 L 47 38 L 45 35 Z M 48 38 Q 45 42 50 41 L 48 38 Z M 92 39 L 90 41 L 92 41 L 92 39 Z M 51 41 Q 49 44 52 43 L 51 41 Z M 53 43 Q 50 48 54 47 Q 57 45 53 43 Z M 88 43 L 86 45 L 88 45 L 88 43 Z M 86 45 L 84 47 L 86 47 L 86 45 Z M 57 47 Q 55 50 58 49 L 57 47 Z M 84 47 L 82 49 L 84 49 L 84 47 Z M 46 49 L 47 51 Q 48 48 46 49 Z M 49 52 L 50 54 Q 51 51 49 52 Z M 52 55 L 53 57 Q 54 54 52 55 Z M 4 56 Q 2 59 5 58 L 4 56 Z M 55 58 L 55 62 L 56 62 L 55 58 Z M 84 58 L 85 61 L 86 59 L 84 58 Z M 128 65 L 126 68 L 128 69 L 128 65 Z M 11 66 L 11 68 Q 13 71 14 68 L 11 66 Z M 9 69 L 9 72 L 12 70 L 9 69 Z M 131 69 L 129 71 L 131 72 L 131 69 Z M 7 72 L 7 75 Q 10 74 7 72 Z M 132 72 L 134 75 Q 135 71 132 72 Z M 85 73 L 84 76 L 86 76 L 85 73 Z M 4 75 L 4 78 Q 7 77 4 75 Z M 137 75 L 135 77 L 136 79 L 137 79 L 137 75 Z M 88 78 L 87 80 L 90 81 L 88 78 Z M 50 81 L 48 83 L 50 83 L 50 81 Z M 61 81 L 61 83 L 65 82 L 61 81 Z M 76 81 Q 75 83 79 83 Q 80 80 76 81 Z M 55 87 L 55 89 L 57 88 L 55 87 Z M 137 96 L 135 99 L 137 98 L 137 96 Z M 3 97 Q 2 100 5 99 Q 6 96 3 97 Z M 34 97 L 32 99 L 34 99 L 34 97 Z M 133 100 L 134 102 Q 135 99 133 100 Z M 10 103 L 10 105 L 14 105 L 10 103 Z M 26 103 L 24 104 L 24 105 L 27 104 L 26 103 Z M 115 104 L 115 105 L 117 105 L 115 104 Z M 126 104 L 126 105 L 128 105 L 126 104 Z M 104 107 L 105 109 Q 106 106 104 107 Z M 108 113 L 107 116 L 108 116 L 108 113 Z M 105 128 L 103 131 L 105 131 L 105 128 Z M 38 132 L 38 134 L 40 133 L 38 132 Z M 101 132 L 102 134 Q 103 131 101 132 Z " /><path fill="rgb(255,255,255)" stroke="rgb(255,255,255)" stroke-width="1" opacity="1" d="M 56.5 0 L 60.5 2 L 61 0 L 77.5 0 L 79.5 2 L 83.5 0 L 83.5 1 L 80.5 2 L 69.5 12 L 59.5 2 L 56.5 1 L 56.5 0 Z M 63 3 L 64 5 Q 65 2 63 3 Z M 76 3 L 76 5 L 78 4 L 76 3 Z M 65 5 L 67 8 Q 68 4 65 5 Z M 73 6 Q 73 10 75 7 L 73 6 Z M 68 8 L 70 11 L 72 10 Q 73 6 68 8 Z " /><path fill="rgb(255,255,255)" stroke="rgb(255,255,255)" stroke-width="1" opacity="1" d="M 69.5 122 L 81.5 133 L 85 134.5 L 55.5 135 L 55.5 134 L 58.5 133 L 69.5 122 Z M 70 123 Q 68 126 71 125 L 70 123 Z M 80 132 Q 78 135 81 134 L 80 132 Z " /><path fill="rgb(122,199,228)" stroke="rgb(122,199,228)" stroke-width="1" opacity="1" d="M 9.5 34 L 8.5 36 L 9.5 34 Z " /><path fill="rgb(122,199,228)" stroke="rgb(122,199,228)" stroke-width="1" opacity="1" d="M 130.5 34 L 133.5 38 L 130.5 34 Z " /><path fill="rgb(122,199,228)" stroke="rgb(122,199,228)" stroke-width="1" opacity="1" d="M 136.5 44 L 137 50.5 L 136 50.5 L 136.5 44 Z " /><path fill="rgb(122,199,228)" stroke="rgb(122,199,228)" stroke-width="1" opacity="1" d="M 130.5 59 L 129.5 61 L 130.5 59 Z " /><path fill="rgb(122,199,228)" stroke="rgb(122,199,228)" stroke-width="1" opacity="1" d="M 85.5 66 L 86 68.5 L 85 68.5 L 85.5 66 Z " /><path fill="rgb(122,199,228)" stroke="rgb(122,199,228)" stroke-width="1" opacity="1" d="M 123.5 66 L 133 76.5 L 123 67.5 L 123.5 66 Z " /><path fill="rgb(122,199,228)" stroke="rgb(122,199,228)" stroke-width="1" opacity="1" d="M 15.5 68 L 6.5 78 L 15.5 68 Z " /><path fill="rgb(122,199,228)" stroke="rgb(122,199,228)" stroke-width="1" opacity="1" d="M 88.5 76 L 89.5 78 L 88.5 76 Z " /><path fill="rgb(122,199,228)" stroke="rgb(122,199,228)" stroke-width="1" opacity="1" d="M 50.5 77 L 46.5 82 L 50.5 77 Z " /><path fill="rgb(122,199,228)" stroke="rgb(122,199,228)" stroke-width="1" opacity="1" d="M 92.5 80 L 110.5 99 L 92.5 80 Z " /><path fill="rgb(122,199,228)" stroke="rgb(122,199,228)" stroke-width="1" opacity="1" d="M 136.5 88 L 137 90.5 L 136 90.5 L 136.5 88 Z " /><path fill="rgb(122,199,228)" stroke="rgb(122,199,228)" stroke-width="1" opacity="1" d="M 15.5 102 L 18 102.5 L 15.5 103 L 15.5 102 Z " /><path fill="rgb(122,199,228)" stroke="rgb(122,199,228)" stroke-width="1" opacity="1" d="M 19.5 102 L 22 102.5 L 19.5 103 L 19.5 102 Z " /><path fill="rgb(122,199,228)" stroke="rgb(122,199,228)" stroke-width="1" opacity="1" d="M 118.5 102 L 121 102.5 L 118.5 103 L 118.5 102 Z " /><path fill="rgb(122,199,228)" stroke="rgb(122,199,228)" stroke-width="1" opacity="1" d="M 122.5 102 L 125 102.5 L 122.5 103 L 122.5 102 Z " /><path fill="rgb(122,199,228)" stroke="rgb(122,199,228)" stroke-width="1" opacity="1" d="M 34.5 116 L 35 120.5 L 34 120.5 L 34.5 116 Z " /><path fill="rgb(122,199,228)" stroke="rgb(122,199,228)" stroke-width="1" opacity="1" d="M 105.5 117 L 106 120.5 L 105 120.5 L 105.5 117 Z " /><path fill="rgb(122,199,228)" stroke="rgb(122,199,228)" stroke-width="1" opacity="1" d="M 103.5 126 L 102.5 128 L 103.5 126 Z " /><path fill="rgb(122,199,228)" stroke="rgb(122,199,228)" stroke-width="1" opacity="1" d="M 59.5 130 L 58.5 132 L 59.5 130 Z " /><path fill="rgb(98,193,230)" stroke="rgb(98,193,230)" stroke-width="1" opacity="1" d="M 15.5 32 L 22 32.5 L 15.5 33 L 15.5 32 Z " /><path fill="rgb(98,193,230)" stroke="rgb(98,193,230)" stroke-width="1" opacity="1" d="M 118.5 32 L 125 32.5 L 118.5 33 L 118.5 32 Z " /><path fill="rgb(98,193,230)" stroke="rgb(98,193,230)" stroke-width="1" opacity="1" d="M 24.5 33 L 25.5 35 L 24.5 33 Z " /><path fill="rgb(98,193,230)" stroke="rgb(98,193,230)" stroke-width="1" opacity="1" d="M 126.5 33 L 131 35.5 L 129.5 35 Q 125.7 34.7 126.5 33 Z " /><path fill="rgb(98,193,230)" stroke="rgb(98,193,230)" stroke-width="1" opacity="1" d="M 10.5 34 L 9.5 36 L 10.5 34 Z " /><path fill="rgb(98,193,230)" stroke="rgb(98,193,230)" stroke-width="1" opacity="1" d="M 110.5 36 L 108 39.5 Q 108.8 41.8 106.5 41 L 104 42.5 L 110.5 36 Z " /><path fill="rgb(98,193,230)" stroke="rgb(98,193,230)" stroke-width="1" opacity="1" d="M 132.5 37 L 133.5 39 L 132.5 37 Z " /><path fill="rgb(98,193,230)" stroke="rgb(98,193,230)" stroke-width="1" opacity="1" d="M 4.5 42 L 5 44.5 L 4 44.5 L 4.5 42 Z " /><path fill="rgb(98,193,230)" stroke="rgb(98,193,230)" stroke-width="1" opacity="1" d="M 102.5 44 L 101.5 46 L 102.5 44 Z " /><path fill="rgb(98,193,230)" stroke="rgb(98,193,230)" stroke-width="1" opacity="1" d="M 99.5 47 L 96.5 51 L 99.5 47 Z " /><path fill="rgb(98,193,230)" stroke="rgb(98,193,230)" stroke-width="1" opacity="1" d="M 4.5 51 L 7 55.5 L 5 54.5 L 4.5 51 Z " /><path fill="rgb(98,193,230)" stroke="rgb(98,193,230)" stroke-width="1" opacity="1" d="M 37.5 51 L 42 51.5 L 37.5 52 L 37.5 51 Z " /><path fill="rgb(98,193,230)" stroke="rgb(98,193,230)" stroke-width="1" opacity="1" d="M 98.5 51 L 103 51.5 L 98.5 52 L 98.5 51 Z " /><path fill="rgb(98,193,230)" stroke="rgb(98,193,230)" stroke-width="1" opacity="1" d="M 45.5 52 L 46.5 54 L 45.5 52 Z " /><path fill="rgb(98,193,230)" stroke="rgb(98,193,230)" stroke-width="1" opacity="1" d="M 109.5 53 L 110.5 55 L 109.5 53 Z " /><path fill="rgb(98,193,230)" stroke="rgb(98,193,230)" stroke-width="1" opacity="1" d="M 134.5 54 L 133.5 56 L 134.5 54 Z " /><path fill="rgb(98,193,230)" stroke="rgb(98,193,230)" stroke-width="1" opacity="1" d="M 7.5 57 L 8.5 59 L 7.5 57 Z " /><path fill="rgb(98,193,230)" stroke="rgb(98,193,230)" stroke-width="1" opacity="1" d="M 13.5 63 L 19 69.5 L 16 67.5 L 13.5 63 Z " /><path fill="rgb(98,193,230)" stroke="rgb(98,193,230)" stroke-width="1" opacity="1" d="M 122.5 68 L 118.5 73 L 122.5 68 Z " /><path fill="rgb(98,193,230)" stroke="rgb(98,193,230)" stroke-width="1" opacity="1" d="M 15.5 69 L 14.5 71 L 15.5 69 Z " /><path fill="rgb(98,193,230)" stroke="rgb(98,193,230)" stroke-width="1" opacity="1" d="M 124.5 69 L 133.5 79 L 124.5 69 Z " /><path fill="rgb(98,193,230)" stroke="rgb(98,193,230)" stroke-width="1" opacity="1" d="M 20.5 71 L 21.5 73 L 20.5 71 Z " /><path fill="rgb(98,193,230)" stroke="rgb(98,193,230)" stroke-width="1" opacity="1" d="M 12.5 72 L 6.5 79 L 12.5 72 Z " /><path fill="rgb(98,193,230)" stroke="rgb(98,193,230)" stroke-width="1" opacity="1" d="M 23.5 74 L 24.5 76 L 23.5 74 Z " /><path fill="rgb(98,193,230)" stroke="rgb(98,193,230)" stroke-width="1" opacity="1" d="M 116.5 74 L 110.5 81 L 116.5 74 Z " /><path fill="rgb(98,193,230)" stroke="rgb(98,193,230)" stroke-width="1" opacity="1" d="M 26.5 77 L 28.5 80 L 26.5 77 Z " /><path fill="rgb(98,193,230)" stroke="rgb(98,193,230)" stroke-width="1" opacity="1" d="M 42.5 82 L 45 82.5 L 25.5 101 L 26.5 99 L 43 83.5 L 42.5 82 Z " /><path fill="rgb(98,193,230)" stroke="rgb(98,193,230)" stroke-width="1" opacity="1" d="M 95.5 82 L 98 82.5 L 97 83.5 L 112.5 99 L 115 100.5 L 113.5 100 L 95.5 82 Z " /><path fill="rgb(98,193,230)" stroke="rgb(98,193,230)" stroke-width="1" opacity="1" d="M 135.5 89 L 136 91.5 L 135 91.5 L 135.5 89 Z " /><path fill="rgb(98,193,230)" stroke="rgb(98,193,230)" stroke-width="1" opacity="1" d="M 4.5 90 L 5 92.5 L 4 92.5 L 4.5 90 Z " /><path fill="rgb(98,193,230)" stroke="rgb(98,193,230)" stroke-width="1" opacity="1" d="M 53.5 93 L 55 95.5 L 54 95.5 L 53.5 93 Z " /><path fill="rgb(98,193,230)" stroke="rgb(98,193,230)" stroke-width="1" opacity="1" d="M 5.5 94 L 9 98.5 L 6 96.5 L 5.5 94 Z " /><path fill="rgb(98,193,230)" stroke="rgb(98,193,230)" stroke-width="1" opacity="1" d="M 134.5 94 L 133.5 96 L 134.5 94 Z " /><path fill="rgb(98,193,230)" stroke="rgb(98,193,230)" stroke-width="1" opacity="1" d="M 51.5 95 L 49.5 98 L 51.5 95 Z " /><path fill="rgb(98,193,230)" stroke="rgb(98,193,230)" stroke-width="1" opacity="1" d="M 132.5 97 L 131.5 99 L 132.5 97 Z " /><path fill="rgb(98,193,230)" stroke="rgb(98,193,230)" stroke-width="1" opacity="1" d="M 47.5 99 L 47 100.5 Q 47.8 102.8 45.5 102 L 43 103.5 L 47.5 99 Z " /><path fill="rgb(98,193,230)" stroke="rgb(98,193,230)" stroke-width="1" opacity="1" d="M 13.5 101 L 16 101.5 L 13.5 102 L 13.5 101 Z " /><path fill="rgb(98,193,230)" stroke="rgb(98,193,230)" stroke-width="1" opacity="1" d="M 21.5 101 L 24 101.5 L 21.5 102 L 21.5 101 Z " /><path fill="rgb(98,193,230)" stroke="rgb(98,193,230)" stroke-width="1" opacity="1" d="M 41.5 105 L 40 107.5 Q 40.8 109.8 38.5 109 L 41.5 105 Z " /><path fill="rgb(98,193,230)" stroke="rgb(98,193,230)" stroke-width="1" opacity="1" d="M 82.5 108 L 70.5 121 L 64 115.5 L 69.5 120 L 82.5 108 Z " /><path fill="rgb(98,193,230)" stroke="rgb(98,193,230)" stroke-width="1" opacity="1" d="M 37.5 110 L 37 111.5 L 36.5 113 L 36 111.5 L 37.5 110 Z " /><path fill="rgb(98,193,230)" stroke="rgb(98,193,230)" stroke-width="1" opacity="1" d="M 61.5 112 L 62.5 114 L 61.5 112 Z " /><path fill="rgb(98,193,230)" stroke="rgb(98,193,230)" stroke-width="1" opacity="1" d="M 104.5 114 L 105 117.5 L 104 117.5 L 104.5 114 Z " /><path fill="rgb(98,193,230)" stroke="rgb(98,193,230)" stroke-width="1" opacity="1" d="M 35.5 116 L 36 122.5 L 35 122.5 L 35.5 116 Z " /><path fill="rgb(98,193,230)" stroke="rgb(98,193,230)" stroke-width="1" opacity="1" d="M 74.5 124 L 75.5 126 L 74.5 124 Z " /><path fill="rgb(98,193,230)" stroke="rgb(98,193,230)" stroke-width="1" opacity="1" d="M 103.5 124 L 104 125.5 L 102 126.5 L 103.5 124 Z " /><path fill="rgb(98,193,230)" stroke="rgb(98,193,230)" stroke-width="1" opacity="1" d="M 77.5 127 L 78.5 129 L 77.5 127 Z " /><path fill="rgb(98,193,230)" stroke="rgb(98,193,230)" stroke-width="1" opacity="1" d="M 38.5 128 L 40.5 131 L 38.5 128 Z " /><path fill="rgb(98,193,230)" stroke="rgb(98,193,230)" stroke-width="1" opacity="1" d="M 101.5 128 L 100.5 130 L 101.5 128 Z " /><path fill="rgb(98,193,230)" stroke="rgb(98,193,230)" stroke-width="1" opacity="1" d="M 58.5 130 L 57.5 132 L 58.5 130 Z " /><path fill="rgb(98,193,230)" stroke="rgb(98,193,230)" stroke-width="1" opacity="1" d="M 48.5 133 L 51 133.5 L 48.5 134 L 48.5 133 Z " /><path fill="rgb(98,193,230)" stroke="rgb(98,193,230)" stroke-width="1" opacity="1" d="M 88.5 133 L 92 133.5 L 88.5 134 L 88.5 133 Z " /><path fill="rgb(104,196,232)" stroke="rgb(104,196,232)" stroke-width="1" opacity="1" d="M 14.5 32 Q 16 34.5 21.5 33 L 23 32.5 L 22.5 34 L 25.5 33 L 25.5 35 L 27.5 36 L 28.5 35 L 45 51.5 L 42.5 50 L 41.5 51 L 31.5 52 L 16.5 66 L 13.5 62 L 12 62.5 Q 14.3 61.3 11.5 60 Q 10.3 62.3 9 59.5 Q 11.7 57.7 7.5 56 L 6 56.5 L 6 54.5 L 4.5 48 L 3 48.5 L 3.5 45 L 5 45.5 L 4 41.5 L 6 41 L 8 37.5 L 7.5 36 Q 9 38.5 10.5 35 L 14 34 L 14.5 32 Z " /><path fill="rgb(104,196,232)" stroke="rgb(104,196,232)" stroke-width="1" opacity="1" d="M 117.5 32 Q 119 34.5 124.5 33 L 126 32.5 Q 125.3 34.8 127.5 34 L 133 38.5 L 133.5 40 L 135 39.5 L 134.5 41 L 136 41.5 L 135 42.5 L 135 51.5 L 135.5 53 L 134 52.5 L 132 56.5 Q 134.3 57.8 131.5 59 Q 129.7 56.2 128 60.5 L 128.5 62 Q 127.3 59.8 126 62.5 Q 128.7 64.3 124.5 66 L 121 65 L 119.5 62 Q 117.3 62.8 118 60.5 L 115 59 L 111.5 54 Q 106.8 49.8 97 50.5 L 100 48.5 L 101.5 46 Q 103.8 46.8 103 44.5 L 112 36.5 L 111.5 35 L 113.5 35 L 115 34.5 L 114.5 33 L 117 34 L 117.5 32 Z " /><path fill="rgb(104,196,232)" stroke="rgb(104,196,232)" stroke-width="1" opacity="1" d="M 123.5 68 L 133 78.5 L 135 82.5 L 135 91.5 L 136 92.5 L 134 93 L 133 95.5 L 133.5 97 Q 131.7 94.3 130 98.5 L 130.5 100 L 128.5 100 Q 126.3 99.3 127 101.5 L 125.5 101 Q 116.5 102.5 112.5 99 L 97 83.5 L 99.5 83 L 101.5 83 Q 107.8 83.8 110.5 81 L 123.5 68 Z " /><path fill="rgb(104,196,232)" stroke="rgb(104,196,232)" stroke-width="1" opacity="1" d="M 16.5 69 L 29.5 81 L 39.5 84 L 42.5 83 L 41.5 85 Q 39.3 84.3 40 86.5 L 35 90.5 L 31.5 95 L 29 96.5 Q 29.8 98.8 27.5 98 Q 24.1 103.1 13.5 101 L 10.5 99 L 9 99.5 L 10 98.5 L 6 94.5 L 4.5 89 L 3 89.5 L 3.5 85 L 5 85.5 L 4 81.5 L 6 81.5 L 5 79.5 L 7 79.5 L 16.5 69 Z " /><path fill="rgb(104,196,232)" stroke="rgb(104,196,232)" stroke-width="1" opacity="1" d="M 90.5 78 L 91.5 80 L 90.5 78 Z " /><path fill="rgb(104,196,232)" stroke="rgb(104,196,232)" stroke-width="1" opacity="1" d="M 85.5 92 L 102 108.5 Q 99.8 109.8 102.5 111 L 104 111.5 L 103 114.5 Q 105.8 116.3 104 122.5 L 99 129.5 L 99.5 131 L 97.5 131 L 93 132 L 92.5 134 L 88.5 133 L 87 133.5 L 87.5 132 Q 82.9 132.6 81.5 130 Q 80.3 132.3 79 129.5 Q 81.8 127.7 77.5 126 L 76 126.5 Q 78.7 124.7 74.5 123 L 73 123.5 Q 75.3 122.2 72.5 121 L 71 121.5 L 85 105.5 L 87 94.5 L 85.5 92 Z " /><path fill="rgb(104,196,232)" stroke="rgb(104,196,232)" stroke-width="1" opacity="1" d="M 53.5 94 L 54 103.5 L 56 107.5 L 69 120.5 L 67 121.5 L 67.5 123 Q 66.3 120.7 65 123.5 Q 67.3 124.8 64.5 126 Q 63.3 123.7 62 126.5 Q 64.8 128.2 60.5 130 Q 59 127.5 57.5 131 L 52 132.5 L 52.5 134 L 48.5 133 L 47 133.5 Q 47.8 130.9 44.5 132 L 40 130 L 38.5 127 L 37 127.5 L 37 125.5 L 36.5 123 L 35 123.5 L 36 122.5 L 36 114.5 L 35.5 113 L 37 113.5 L 38 110.5 L 37.5 109 L 38.5 110 L 42 106.5 L 43.5 104 L 46.5 102 L 49 98 L 52 96.5 L 53.5 94 Z " /><path fill="rgb(175,221,236)" stroke="rgb(175,221,236)" stroke-width="1" opacity="1" d="M 15.5 31 L 22 31.5 L 15.5 32 L 15.5 31 Z " /><path fill="rgb(175,221,236)" stroke="rgb(175,221,236)" stroke-width="1" opacity="1" d="M 118.5 31 L 125 31.5 L 118.5 32 L 118.5 31 Z " /><path fill="rgb(175,221,236)" stroke="rgb(175,221,236)" stroke-width="1" opacity="1" d="M 111.5 34 L 88.5 58 L 111.5 34 Z " /><path fill="rgb(175,221,236)" stroke="rgb(175,221,236)" stroke-width="1" opacity="1" d="M 29.5 35 L 50.5 57 L 29.5 35 Z " /><path fill="rgb(175,221,236)" stroke="rgb(175,221,236)" stroke-width="1" opacity="1" d="M 5.5 38 L 4.5 40 L 5.5 38 Z " /><path fill="rgb(175,221,236)" stroke="rgb(175,221,236)" stroke-width="1" opacity="1" d="M 135.5 54 L 134.5 56 L 135.5 54 Z " /><path fill="rgb(175,221,236)" stroke="rgb(175,221,236)" stroke-width="1" opacity="1" d="M 6.5 57 L 15.5 67 L 6.5 57 Z " /><path fill="rgb(175,221,236)" stroke="rgb(175,221,236)" stroke-width="1" opacity="1" d="M 132.5 58 L 124.5 67 L 132.5 58 Z " /><path fill="rgb(175,221,236)" stroke="rgb(175,221,236)" stroke-width="1" opacity="1" d="M 54.5 64 L 55 69.5 L 54 69.5 L 54.5 64 Z " /><path fill="rgb(175,221,236)" stroke="rgb(175,221,236)" stroke-width="1" opacity="1" d="M 133.5 77 L 134.5 79 L 133.5 77 Z " /><path fill="rgb(175,221,236)" stroke="rgb(175,221,236)" stroke-width="1" opacity="1" d="M 45.5 82 L 27.5 101 L 45.5 82 Z " /><path fill="rgb(175,221,236)" stroke="rgb(175,221,236)" stroke-width="1" opacity="1" d="M 68.5 82 L 72 82.5 L 68.5 83 L 68.5 82 Z " /><path fill="rgb(175,221,236)" stroke="rgb(175,221,236)" stroke-width="1" opacity="1" d="M 60.5 85 L 37.5 109 L 60.5 85 Z " /><path fill="rgb(175,221,236)" stroke="rgb(175,221,236)" stroke-width="1" opacity="1" d="M 80.5 86 L 101.5 108 L 80.5 86 Z " /><path fill="rgb(175,221,236)" stroke="rgb(175,221,236)" stroke-width="1" opacity="1" d="M 5.5 96 L 8.5 100 L 5.5 96 Z " /><path fill="rgb(175,221,236)" stroke="rgb(175,221,236)" stroke-width="1" opacity="1" d="M 133.5 97 L 131.5 100 L 133.5 97 Z " /><path fill="rgb(175,221,236)" stroke="rgb(175,221,236)" stroke-width="1" opacity="1" d="M 111.5 99 L 112.5 101 L 111.5 99 Z " /><path fill="rgb(175,221,236)" stroke="rgb(175,221,236)" stroke-width="1" opacity="1" d="M 36.5 110 L 35.5 112 L 36.5 110 Z " /><path fill="rgb(175,221,236)" stroke="rgb(175,221,236)" stroke-width="1" opacity="1" d="M 105.5 114 L 106 116.5 L 105 116.5 L 105.5 114 Z " /><path fill="rgb(175,221,236)" stroke="rgb(175,221,236)" stroke-width="1" opacity="1" d="M 69.5 121 L 80 130.5 L 70.5 122 L 60.5 131 L 69.5 121 Z " /><path fill="rgb(175,221,236)" stroke="rgb(175,221,236)" stroke-width="1" opacity="1" d="M 37.5 128 L 40.5 132 L 37.5 128 Z " /><path fill="rgb(175,221,236)" stroke="rgb(175,221,236)" stroke-width="1" opacity="1" d="M 102.5 128 L 99.5 132 L 102.5 128 Z " /><path fill="rgb(175,221,236)" stroke="rgb(175,221,236)" stroke-width="1" opacity="1" d="M 48.5 134 L 52 134.5 L 48.5 135 L 48.5 134 Z " /><path fill="rgb(175,221,236)" stroke="rgb(175,221,236)" stroke-width="1" opacity="1" d="M 88.5 134 L 92 134.5 L 88.5 135 L 88.5 134 Z " /><path fill="rgb(98,194,234)" stroke="rgb(98,194,234)" stroke-width="1" opacity="1" d="M 12.5 33 L 14 33.5 L 11.5 35 L 12.5 33 Z " /><path fill="rgb(98,194,234)" stroke="rgb(98,194,234)" stroke-width="1" opacity="1" d="M 115.5 33 L 114.5 35 L 108.5 40 L 113.5 34 L 115.5 33 Z " /><path fill="rgb(98,194,234)" stroke="rgb(98,194,234)" stroke-width="1" opacity="1" d="M 26.5 34 L 43.5 52 Q 41.3 52.8 42 50.5 L 26.5 34 Z " /><path fill="rgb(98,194,234)" stroke="rgb(98,194,234)" stroke-width="1" opacity="1" d="M 8.5 36 L 6.5 39 L 8.5 36 Z " /><path fill="rgb(98,194,234)" stroke="rgb(98,194,234)" stroke-width="1" opacity="1" d="M 106.5 41 L 105.5 43 L 106.5 41 Z " /><path fill="rgb(98,194,234)" stroke="rgb(98,194,234)" stroke-width="1" opacity="1" d="M 135.5 45 L 136 50.5 L 135 50.5 L 135.5 45 Z " /><path fill="rgb(98,194,234)" stroke="rgb(98,194,234)" stroke-width="1" opacity="1" d="M 4.5 48 L 5 50.5 L 4 50.5 L 4.5 48 Z " /><path fill="rgb(98,194,234)" stroke="rgb(98,194,234)" stroke-width="1" opacity="1" d="M 99.5 48 L 98.5 50 L 99.5 48 Z " /><path fill="rgb(98,194,234)" stroke="rgb(98,194,234)" stroke-width="1" opacity="1" d="M 34.5 51 L 37 51.5 L 34.5 52 L 34.5 51 Z " /><path fill="rgb(98,194,234)" stroke="rgb(98,194,234)" stroke-width="1" opacity="1" d="M 103.5 51 L 106 51.5 L 103.5 52 L 103.5 51 Z " /><path fill="rgb(98,194,234)" stroke="rgb(98,194,234)" stroke-width="1" opacity="1" d="M 31.5 52 L 33 52.5 L 30.5 54 L 31.5 52 Z " /><path fill="rgb(98,194,234)" stroke="rgb(98,194,234)" stroke-width="1" opacity="1" d="M 134.5 52 L 135 53.5 L 133 54.5 L 134.5 52 Z " /><path fill="rgb(98,194,234)" stroke="rgb(98,194,234)" stroke-width="1" opacity="1" d="M 28.5 54 L 17.5 66 L 28.5 54 Z " /><path fill="rgb(98,194,234)" stroke="rgb(98,194,234)" stroke-width="1" opacity="1" d="M 111.5 54 L 114.5 58 L 111.5 54 Z " /><path fill="rgb(98,194,234)" stroke="rgb(98,194,234)" stroke-width="1" opacity="1" d="M 7.5 56 L 15.5 65 L 7.5 56 Z " /><path fill="rgb(98,194,234)" stroke="rgb(98,194,234)" stroke-width="1" opacity="1" d="M 132.5 56 L 123.5 66 L 122 65.5 L 132.5 56 Z " /><path fill="rgb(98,194,234)" stroke="rgb(98,194,234)" stroke-width="1" opacity="1" d="M 116.5 59 L 117.5 61 L 116.5 59 Z " /><path fill="rgb(98,194,234)" stroke="rgb(98,194,234)" stroke-width="1" opacity="1" d="M 119.5 62 L 120.5 64 L 119.5 62 Z " /><path fill="rgb(98,194,234)" stroke="rgb(98,194,234)" stroke-width="1" opacity="1" d="M 4.5 83 L 5 85.5 L 4 85.5 L 4.5 83 Z " /><path fill="rgb(98,194,234)" stroke="rgb(98,194,234)" stroke-width="1" opacity="1" d="M 37.5 83 L 40 83.5 L 37.5 84 L 37.5 83 Z " /><path fill="rgb(98,194,234)" stroke="rgb(98,194,234)" stroke-width="1" opacity="1" d="M 135.5 84 L 136 88.5 L 135 88.5 L 135.5 84 Z " /><path fill="rgb(98,194,234)" stroke="rgb(98,194,234)" stroke-width="1" opacity="1" d="M 36.5 89 L 35.5 91 L 36.5 89 Z " /><path fill="rgb(98,194,234)" stroke="rgb(98,194,234)" stroke-width="1" opacity="1" d="M 85.5 93 L 101.5 110 L 85.5 93 Z " /><path fill="rgb(98,194,234)" stroke="rgb(98,194,234)" stroke-width="1" opacity="1" d="M 30.5 95 L 29.5 97 L 30.5 95 Z " /><path fill="rgb(98,194,234)" stroke="rgb(98,194,234)" stroke-width="1" opacity="1" d="M 7.5 96 L 13 100.5 L 11.5 101 L 7.5 96 Z " /><path fill="rgb(98,194,234)" stroke="rgb(98,194,234)" stroke-width="1" opacity="1" d="M 51.5 96 L 50.5 98 L 51.5 96 Z " /><path fill="rgb(98,194,234)" stroke="rgb(98,194,234)" stroke-width="1" opacity="1" d="M 132.5 96 L 129.5 100 L 132.5 96 Z " /><path fill="rgb(98,194,234)" stroke="rgb(98,194,234)" stroke-width="1" opacity="1" d="M 48.5 98 L 49 99.5 L 47 100.5 L 48.5 98 Z " /><path fill="rgb(98,194,234)" stroke="rgb(98,194,234)" stroke-width="1" opacity="1" d="M 16.5 101 L 21 101.5 L 16.5 102 L 16.5 101 Z " /><path fill="rgb(98,194,234)" stroke="rgb(98,194,234)" stroke-width="1" opacity="1" d="M 118.5 101 L 125 101.5 L 118.5 102 L 118.5 101 Z " /><path fill="rgb(98,194,234)" stroke="rgb(98,194,234)" stroke-width="1" opacity="1" d="M 41.5 106 L 40.5 108 L 41.5 106 Z " /><path fill="rgb(98,194,234)" stroke="rgb(98,194,234)" stroke-width="1" opacity="1" d="M 56.5 107 L 58.5 110 L 56.5 107 Z " /><path fill="rgb(98,194,234)" stroke="rgb(98,194,234)" stroke-width="1" opacity="1" d="M 104.5 118 L 105 120.5 L 104 120.5 L 104.5 118 Z " /><path fill="rgb(98,194,234)" stroke="rgb(98,194,234)" stroke-width="1" opacity="1" d="M 67.5 121 L 59.5 130 L 67.5 121 Z " /><path fill="rgb(98,194,234)" stroke="rgb(98,194,234)" stroke-width="1" opacity="1" d="M 72.5 121 L 81.5 131 L 72.5 121 Z " /><path fill="rgb(98,194,234)" stroke="rgb(98,194,234)" stroke-width="1" opacity="1" d="M 37.5 126 L 39.5 129 L 37.5 126 Z " /><path fill="rgb(98,194,234)" stroke="rgb(98,194,234)" stroke-width="1" opacity="1" d="M 101.5 127 L 98.5 131 L 101.5 127 Z " /></svg>